<svg xmlns="http://www.w3.org/2000/svg" viewBox="0 0 32 32">
  <rect width="32" height="32" rx="8" fill="#3b82f6"/>
  <!-- Calendar icon -->
  <rect x="6" y="10" width="20" height="16" rx="2" fill="white" opacity="0.15"/>
  <rect x="6" y="10" width="20" height="16" rx="2" stroke="white" stroke-width="1.5" fill="none"/>
  <!-- Top bar -->
  <rect x="6" y="10" width="20" height="5" rx="2" fill="white" opacity="0.3"/>
  <!-- Calendar pegs -->
  <rect x="10" y="7" width="2" height="5" rx="1" fill="white"/>
  <rect x="20" y="7" width="2" height="5" rx="1" fill="white"/>
  <!-- Grid dots -->
  <rect x="9" y="18" width="3" height="2.5" rx="0.5" fill="white" opacity="0.9"/>
  <rect x="14" y="18" width="3" height="2.5" rx="0.5" fill="white" opacity="0.9"/>
  <rect x="19" y="18" width="3" height="2.5" rx="0.5" fill="white" opacity="0.9"/>
  <rect x="9" y="22" width="3" height="2.5" rx="0.5" fill="white" opacity="0.9"/>
  <rect x="14" y="22" width="3" height="2.5" rx="0.5" fill="white" opacity="0.9"/>
  <!-- Sparkle (AI indicator) -->
  <circle cx="21" cy="23.5" r="2.5" fill="#fbbf24"/>
  <path d="M21 21.5v.5M21 25v.5M19 23.5h.5M22.5 23.5h.5" stroke="white" stroke-width="0.8" stroke-linecap="round"/>
</svg>
